# xmcd CD database file
#
# Track frame offsets:
#	225
#	14227
#	25615
#	39355
#	50662
#	62740
#	74545
#	86290
#	98012
#	111417
#	127727
#	143632
#	162815
#	179552
#	194115
#	206145
#	216947
#	234070
#	245410
#	263500
#	274992
#	283732
#	299305
#	314805
#
# Disc length: 4388 seconds
#
# Revision: 0
# Processed by: cddbd v1.5.1PL2 Copyright (c) Steve Scherf et al.
# Submitted via: CDex 1.51
#
DISCID=70112118
DTITLE=Rita Reys - First Lady Of Jazz 1
DYEAR=1995
DGENRE=Jazz
TTITLE0=Deed I do
TTITLE1=Exactly like you
TTITLE2=My funny Valentine
TTITLE3=There'll never be another you
TTITLE4=I should care
TTITLE5=It's alright with me
TTITLE6=Gone with the wind
TTITLE7=Taking a chance on love
TTITLE8=That old black magic
TTITLE9=You'd be so nice to come home to
TTITLE10=I cried for you
TTITLE11=My one and only love
TTITLE12=Spring will be a little late this year
TTITLE13=The song is you
TTITLE14=Old devil moon
TTITLE15=He's my guy
TTITLE16=Where are you ?
TTITLE17=All of you
TTITLE18=When the blues come on
TTITLE19=I didn't know what time it was
TTITLE20=Avalon
TTITLE21=Love for sale
TTITLE22=Zon in Scheveningen
TTITLE23=Venus bespied
EXTD=YEAR: 1995
EXTT0=
EXTT1=
EXTT2=
EXTT3=
EXTT4=
EXTT5=
EXTT6=
EXTT7=
EXTT8=
EXTT9=
EXTT10=
EXTT11=
EXTT12=
EXTT13=
EXTT14=
EXTT15=
EXTT16=
EXTT17=
EXTT18=
EXTT19=
EXTT20=
EXTT21=
EXTT22=
EXTT23=
PLAYORDER=
